<svg width="879" height="680" viewBox="0 0 879 680" fill="none" xmlns="http://www.w3.org/2000/svg">
<path fill-rule="evenodd" clip-rule="evenodd" d="M666.831 106.232C666.857 105.683 667.321 105.257 667.871 105.279L699.922 106.589C700.012 106.593 700.102 106.584 700.19 106.564L760.54 92.4638C760.832 92.3955 761.139 92.462 761.377 92.6448L798.39 121.103C798.711 121.35 798.852 121.767 798.745 122.159L795.102 135.536C794.964 136.04 795.238 136.565 795.73 136.74L803.913 139.667C804.184 139.764 804.399 139.972 804.506 140.239L827.795 198.873C827.943 199.245 828.299 199.493 828.699 199.503L854.594 200.152C854.926 200.16 855.232 200.332 855.411 200.612L877.408 234.946C877.774 235.517 877.477 236.279 876.821 236.452L807.026 254.913C806.63 255.018 806.338 255.353 806.289 255.76L803.876 275.689C803.782 276.465 802.875 276.838 802.262 276.353L788.366 265.337C787.871 264.945 787.142 265.103 786.854 265.665L745.73 346.031C745.546 346.389 745.165 346.603 744.764 346.572L657.011 339.915C656.472 339.875 656.063 339.412 656.088 338.872L666.831 106.232Z" fill="#FCECE0" stroke="#2B2B2B"/>
<path fill-rule="evenodd" clip-rule="evenodd" d="M683.59 290.325C683.733 290.338 683.871 290.381 683.995 290.452L708.524 304.392C708.741 304.515 708.904 304.715 708.981 304.953L717.568 331.411C717.631 331.603 717.749 331.771 717.909 331.894L726.128 338.225C726.344 338.391 726.62 338.462 726.89 338.421L752.399 334.491C752.7 334.445 753.006 334.538 753.23 334.745L761.163 342.078C761.473 342.364 761.57 342.813 761.406 343.201L748.871 372.928C748.832 373.019 748.78 373.105 748.716 373.181L696.268 435.799C696.094 436.007 696.011 436.277 696.04 436.546L700.607 479.665C700.673 480.292 700.151 480.823 699.523 480.766L610.863 472.816C610.367 472.772 609.979 472.368 609.954 471.87L600.574 284.035C600.544 283.428 601.057 282.935 601.662 282.989L683.59 290.325Z" fill="#FCECE0" stroke="#2B2B2B" stroke-linejoin="round"/>
<path fill-rule="evenodd" clip-rule="evenodd" d="M549.804 102.82C550.169 102.643 550.605 102.704 550.908 102.975L575.994 125.45C576.09 125.536 576.202 125.603 576.323 125.646L618.513 140.829C619.042 141.019 619.623 140.736 619.8 140.203L624.755 125.321C624.844 125.054 625.04 124.837 625.297 124.723L666.773 106.265C667.223 106.065 667.752 106.222 668.019 106.636L682.292 128.723C682.396 128.885 682.452 129.073 682.452 129.266V152.571C682.452 152.658 682.44 152.745 682.418 152.829L654.184 258.511C654.079 258.901 653.751 259.19 653.351 259.244L584.048 268.586C583.756 268.625 583.462 268.534 583.244 268.336L499.327 192.375C499.087 192.158 498.967 191.838 499.005 191.516L507.006 124.089C507.046 123.751 507.256 123.456 507.562 123.307L549.804 102.82Z" fill="#FCECE0" stroke="#2B2B2B"/>
<path fill-rule="evenodd" clip-rule="evenodd" d="M330.964 38.9076C330.995 38.8299 331.037 38.7564 331.087 38.689L350.403 12.678C350.56 12.4659 350.795 12.3247 351.057 12.2854L426.997 0.845691C427.109 0.828734 427.224 0.831122 427.336 0.852752L507.026 16.2754C507.455 16.3585 507.781 16.7109 507.83 17.1454L513.115 64.1168C513.147 64.3967 513.295 64.6503 513.523 64.8153L524.822 72.9866C525.145 73.2199 525.298 73.6223 525.213 74.0112L499.813 189.802C499.704 190.298 499.241 190.634 498.735 190.583L279.524 168.431C278.86 168.364 278.447 167.677 278.699 167.059L330.964 38.9076Z" fill="#FCECE0" stroke="#2B2B2B"/>
<path fill-rule="evenodd" clip-rule="evenodd" d="M472.47 143.243C472.514 143.221 472.559 143.201 472.606 143.186L484.285 139.288C484.564 139.195 484.788 138.984 484.897 138.71L487.267 132.777C487.373 132.512 487.36 132.215 487.233 131.959L486.309 130.11C486.165 129.82 486.169 129.479 486.321 129.193L518.118 69.4956C518.375 69.0127 518.973 68.8261 519.459 69.0769L540.619 79.9921C540.819 80.0952 540.979 80.2627 541.072 80.4674L550.814 101.93C550.979 102.292 550.913 102.718 550.646 103.013L538.763 116.164C538.446 116.515 538.418 117.039 538.696 117.422L548.731 131.239C548.932 131.515 548.978 131.875 548.853 132.193L539.004 157.177C538.934 157.354 538.916 157.548 538.953 157.735L556.273 246.452C556.392 247.064 555.928 247.635 555.304 247.643L450.316 248.974C449.847 248.98 449.437 248.659 449.33 248.202L430.054 165.67C429.949 165.222 430.164 164.76 430.574 164.551L472.47 143.243Z" fill="#FCECE0" stroke="#2B2B2B" stroke-linejoin="round"/>
<path fill-rule="evenodd" clip-rule="evenodd" d="M272.224 504.918C271.766 505.128 271.536 505.646 271.687 506.127L278.825 528.87C278.856 528.967 278.871 529.068 278.871 529.17V551.394C278.871 552.067 279.522 552.547 280.165 552.349L286.906 550.272C287.355 550.134 287.839 550.326 288.071 550.734L307.014 584.092C307.197 584.414 307.186 584.812 306.987 585.124L296.99 600.764C296.703 601.214 296.819 601.81 297.254 602.118L311.99 612.57C312.409 612.867 312.985 612.798 313.323 612.411L330.393 592.785C330.74 592.386 331.339 592.327 331.758 592.65L383.031 632.142C383.471 632.481 384.102 632.397 384.438 631.954L466.447 523.799C466.806 523.326 466.676 522.647 466.168 522.339L366.676 462.164C366.393 461.993 366.043 461.973 365.742 462.11L272.224 504.918Z" fill="#FCECE0" stroke="#2B2B2B"/>
<path fill-rule="evenodd" clip-rule="evenodd" d="M298.959 501.323C299.098 501.673 299.028 502.072 298.777 502.355L277.701 526.096C277.58 526.232 277.425 526.333 277.252 526.387L266.83 529.648C266.732 529.679 266.64 529.724 266.556 529.783L237.813 549.862C237.651 549.975 237.527 550.134 237.455 550.318L218.028 599.954C217.962 600.122 217.852 600.269 217.71 600.38L197.539 616.016C197.183 616.293 196.686 616.296 196.326 616.026L191.862 612.674C191.643 612.509 191.501 612.261 191.47 611.989L187.489 577.449C187.468 577.258 187.501 577.066 187.585 576.894L204.998 541.352C205.04 541.265 205.095 541.185 205.16 541.114L212.739 532.893C213.011 532.598 213.081 532.169 212.916 531.804L203.973 511.976C203.811 511.618 203.455 511.387 203.061 511.387H197.396C197.104 511.387 196.827 511.259 196.637 511.037L172.955 483.372C172.712 483.088 172.647 482.691 172.789 482.345L199.363 417.152C199.53 416.742 199.947 416.491 200.387 416.535L267.43 423.181C267.803 423.218 268.123 423.46 268.261 423.808L298.959 501.323Z" fill="#FCECE0" stroke="#2B2B2B"/>
<path fill-rule="evenodd" clip-rule="evenodd" d="M598.387 412.419C598.666 412.403 598.939 412.503 599.14 412.696L649.216 460.833C649.462 461.069 649.811 461.164 650.142 461.084L666.242 457.215C666.435 457.169 666.639 457.181 666.826 457.251L699.515 469.485C699.851 469.61 700.094 469.906 700.152 470.26L703.337 489.716C703.402 490.111 703.224 490.507 702.886 490.722L693.657 496.575C693.421 496.724 693.258 496.966 693.208 497.241L679.882 570.631C679.801 571.08 679.425 571.417 678.97 571.45L666.315 572.355C665.851 572.388 665.472 572.736 665.399 573.195L661.863 595.403C661.822 595.66 661.683 595.891 661.474 596.047L631.531 618.452C631.203 618.697 631.058 619.116 631.164 619.511L639.518 650.721C639.667 651.276 639.318 651.841 638.756 651.958L589.934 662.129C589.571 662.205 589.196 662.074 588.96 661.789L575.148 645.13C574.772 644.676 574.087 644.644 573.671 645.061L557.683 661.07C557.149 661.605 556.237 661.376 556.019 660.652L534.211 588.525C534.175 588.406 534.117 588.295 534.041 588.198L406.673 425.421C406.176 424.786 406.596 423.854 407.401 423.806L598.387 412.419Z" fill="#FCECE0" stroke="#2B2B2B"/>
<path fill-rule="evenodd" clip-rule="evenodd" d="M450.674 452.672C450.758 452.737 450.831 452.814 450.891 452.902L475.889 489.533C476.183 489.964 476.759 490.096 477.212 489.837L480.019 488.231C480.455 487.981 481.01 488.095 481.313 488.496L498.069 510.668C498.201 510.842 498.272 511.053 498.272 511.271V526.642C498.272 527.428 499.136 527.907 499.802 527.49L507.293 522.802C507.807 522.48 508.487 522.687 508.736 523.24L525.055 559.553C525.105 559.663 525.174 559.764 525.26 559.85L533.036 567.637C533.176 567.776 533.271 567.954 533.309 568.148L540.324 603.268C540.491 604.102 539.606 604.75 538.861 604.34L516.242 591.883C515.943 591.718 515.579 591.717 515.279 591.882L490.01 605.738C489.709 605.903 489.514 606.21 489.493 606.553L488.948 615.286C488.921 615.718 488.619 616.083 488.2 616.191L450.834 625.847C450.437 625.95 450.143 626.284 450.092 626.691L448.96 635.76C448.938 635.933 448.872 636.098 448.767 636.237L417.059 678.366C416.723 678.813 416.085 678.897 415.644 678.552L396.595 663.65C396.505 663.579 396.404 663.525 396.295 663.489L378.298 657.482C377.943 657.363 377.684 657.057 377.626 656.688L372.841 626.139C372.771 625.697 373.005 625.263 373.412 625.076L387.048 618.817C387.445 618.635 387.678 618.217 387.624 617.785L384.064 589.272C384.007 588.813 384.271 588.375 384.703 588.212L416.202 576.31C416.692 576.125 416.956 575.593 416.808 575.091L382.354 458.656C382.207 458.157 382.466 457.628 382.951 457.44L431.538 438.588C431.863 438.461 432.231 438.514 432.508 438.727L450.674 452.672Z" fill="#FCECE0" stroke="#2B2B2B"/>
<path fill-rule="evenodd" clip-rule="evenodd" d="M596.111 246.572C595.857 246.088 596.038 245.489 596.518 245.228L618.385 233.319C618.663 233.168 618.996 233.157 619.283 233.29L628.74 237.66C629.132 237.842 629.597 237.75 629.891 237.434L662.438 202.46C662.628 202.255 662.724 201.98 662.703 201.702L660.329 170.803C660.309 170.535 660.397 170.271 660.573 170.068L681.534 146.081C682.112 145.42 683.201 145.771 683.283 146.645L685.091 165.832C685.095 165.881 685.096 165.931 685.094 165.981L683.893 187.618C683.883 187.796 683.826 187.968 683.727 188.117L679.568 194.364C679.256 194.832 679.392 195.465 679.868 195.764L696.164 206.01C696.369 206.139 696.613 206.189 696.852 206.152L716.469 203.071C716.911 203.001 717.346 203.234 717.533 203.641L726.347 222.828C726.485 223.128 726.466 223.478 726.295 223.762L701.86 264.271C701.799 264.374 701.756 264.486 701.734 264.604L695.87 295.919C695.762 296.497 695.181 296.857 694.616 296.698L667.069 288.928C666.894 288.879 666.71 288.878 666.535 288.926L625.198 300.191C624.746 300.315 624.268 300.107 624.05 299.692L596.111 246.572Z" fill="#FCECE0" stroke="#2B2B2B"/>
<path fill-rule="evenodd" clip-rule="evenodd" d="M505.991 231.096C506.127 230.807 506.392 230.6 506.706 230.54L550.397 222.111C550.481 222.095 550.566 222.09 550.651 222.095L574.263 223.62C574.967 223.666 575.496 222.987 575.28 222.316L572.016 212.187C571.83 211.609 572.197 211.001 572.794 210.895L578.114 209.955C578.407 209.904 578.708 209.985 578.935 210.178L597.022 225.533C597.189 225.674 597.304 225.866 597.351 226.079L606.108 265.535C606.18 265.86 606.409 266.127 606.719 266.249L626.609 274.059C626.834 274.148 627.02 274.315 627.131 274.529L642.363 303.86C642.614 304.343 642.433 304.938 641.955 305.199L576.265 341.077C575.936 341.257 575.536 341.238 575.226 341.029L484.149 279.561C483.74 279.285 483.594 278.753 483.803 278.307L505.991 231.096Z" fill="#DC325F" stroke="#2B2B2B" stroke-linejoin="round"/>
<path fill-rule="evenodd" clip-rule="evenodd" d="M561.61 419.124C561.99 419.565 562.664 419.59 563.075 419.178L568.518 413.729C568.908 413.338 569.542 413.338 569.933 413.729L599.478 443.313C599.844 443.68 600.429 443.706 600.827 443.375L616.434 430.352C616.857 429.998 616.915 429.368 616.562 428.944L613.689 425.492C613.371 425.11 613.382 424.552 613.715 424.183L624.246 412.509C624.421 412.315 624.513 412.06 624.502 411.799L623.724 392.319C623.712 392.022 623.569 391.746 623.333 391.565L617.224 386.887C616.955 386.682 616.809 386.355 616.834 386.019L617.977 370.76C618 370.453 618.163 370.174 618.419 370.003L634.82 359.055C634.995 358.938 635.203 358.879 635.413 358.887L645.664 359.267C645.922 359.277 646.175 359.186 646.367 359.013L657.105 349.414C657.324 349.218 657.446 348.934 657.438 348.64L655.857 293.264C655.84 292.655 655.287 292.203 654.687 292.307L625.692 297.339C625.459 297.38 625.249 297.501 625.097 297.682L608.518 317.445C608.35 317.645 608.11 317.772 607.85 317.797L554.994 323.01C554.734 323.035 554.474 322.958 554.271 322.795L525.03 299.371C524.543 298.981 523.823 299.127 523.525 299.675L498.811 345.241C498.613 345.606 498.661 346.056 498.932 346.37L561.61 419.124Z" fill="#DC325F" stroke="#2B2B2B" stroke-linejoin="round"/>
<path fill-rule="evenodd" clip-rule="evenodd" d="M509.905 241.875C510.539 241.75 511.124 242.251 511.097 242.898L510.301 262.293C510.292 262.521 510.36 262.745 510.495 262.928L519.042 274.522C519.145 274.662 519.21 274.826 519.23 274.998L520.569 286.263C520.611 286.612 520.833 286.914 521.154 287.057L531.165 291.542C531.418 291.655 531.612 291.868 531.702 292.13L537.165 308.019C537.381 308.649 536.932 309.311 536.267 309.343L532.061 309.543C531.746 309.558 531.457 309.721 531.28 309.982L525.784 318.106C525.619 318.35 525.57 318.655 525.65 318.938L529.182 331.455C529.234 331.637 529.232 331.829 529.179 332.011L526.307 341.682C526.183 342.1 525.802 342.39 525.366 342.397L447.153 343.806C446.61 343.816 446.159 343.391 446.136 342.848L442.476 256.018C442.455 255.524 442.797 255.09 443.282 254.994L509.905 241.875Z" fill="#DC325F" stroke="#2B2B2B" stroke-linejoin="round"/>
<path fill-rule="evenodd" clip-rule="evenodd" d="M447.021 290.567C447.611 290.858 448.316 290.511 448.444 289.867L453.228 265.917C453.31 265.507 453.638 265.192 454.05 265.126L481.861 260.67C482.026 260.644 482.182 260.576 482.315 260.473L503.54 244.037C503.629 243.968 503.729 243.915 503.836 243.879L509.908 241.853C510.308 241.719 510.581 241.35 510.591 240.928L510.851 230.249C510.858 229.98 510.756 229.719 510.568 229.526L499.048 217.717C498.88 217.544 498.655 217.438 498.415 217.418L481.928 216.043C481.677 216.022 481.444 215.907 481.274 215.721L447.399 178.692C447.174 178.447 446.842 178.329 446.513 178.378L396.001 185.923C395.452 186.005 395.075 186.519 395.161 187.068L408.435 271.057C408.486 271.378 408.689 271.654 408.98 271.798L447.021 290.567Z" fill="#DC325F" stroke="#2B2B2B" stroke-linejoin="round"/>
<path fill-rule="evenodd" clip-rule="evenodd" d="M404.138 195.223C404.411 195.219 404.672 195.328 404.863 195.522L450.15 241.657C450.679 242.197 450.442 243.106 449.717 243.318L442.149 245.528C441.789 245.633 441.518 245.931 441.447 246.299L439.585 255.995C439.549 256.183 439.459 256.358 439.326 256.497L431.126 265.08C430.808 265.413 430.759 265.92 431.006 266.309L444.934 288.17C445.285 288.721 445.021 289.456 444.399 289.658L388.988 307.632C388.41 307.819 387.801 307.453 387.695 306.855L368.179 196.786C368.071 196.178 368.535 195.619 369.153 195.612L404.138 195.223Z" fill="#DC325F" stroke="#2B2B2B" stroke-linejoin="round"/>
<path fill-rule="evenodd" clip-rule="evenodd" d="M412.786 293.178C412.732 292.777 412.923 292.384 413.271 292.179L428.838 283.055C429.161 282.865 429.564 282.873 429.881 283.075L437.788 288.113C438.108 288.317 438.515 288.322 438.84 288.127L444.209 284.902C444.34 284.823 444.488 284.775 444.64 284.762L448.523 284.438C448.974 284.401 449.394 284.67 449.547 285.096L454.414 298.59C454.514 298.869 454.486 299.178 454.336 299.434L445.133 315.178C444.939 315.51 444.57 315.701 444.187 315.669L416.341 313.346C415.874 313.307 415.497 312.949 415.433 312.485L412.786 293.178Z" fill="#DC325F" stroke="#2B2B2B" stroke-linejoin="round"/>
<path fill-rule="evenodd" clip-rule="evenodd" d="M269.86 435.194C269.681 435.334 269.555 435.532 269.503 435.754L266.798 447.363C266.758 447.534 266.764 447.713 266.815 447.881L278.022 484.751C278.086 484.963 278.078 485.191 277.999 485.398L273.096 498.238C272.941 498.644 273.067 499.104 273.407 499.376L306.229 525.59C306.651 525.927 307.266 525.868 307.616 525.455L318 513.2C318.23 512.929 318.587 512.8 318.938 512.862L336.204 515.936C336.498 515.988 336.799 515.907 337.026 515.714L351.954 503.066C352.292 502.78 352.778 502.75 353.148 502.993L362.799 509.311C362.99 509.436 363.219 509.492 363.446 509.469L395.057 506.304C395.407 506.269 395.712 506.054 395.862 505.737L402.789 491.094C402.885 490.889 402.91 490.658 402.858 490.437L385.631 417.426C385.527 416.988 385.144 416.673 384.695 416.656L298.002 413.441C297.766 413.432 297.535 413.507 297.349 413.653L269.86 435.194Z" fill="#FCECE0" stroke="#2B2B2B"/>
<path fill-rule="evenodd" clip-rule="evenodd" d="M448.178 439.016C448.115 439.515 448.432 439.984 448.919 440.11L482.347 448.773C482.529 448.821 482.721 448.815 482.9 448.758L498.889 443.682C499.149 443.6 499.43 443.627 499.669 443.757L512.52 450.742C513.052 451.031 513.207 451.723 512.849 452.211L509.719 456.486C509.365 456.969 509.512 457.654 510.035 457.948L521.502 464.407C521.844 464.599 522.266 464.574 522.583 464.342L559.28 437.475C559.633 437.216 560.114 437.217 560.466 437.479L569.664 444.301C570.233 444.723 571.047 444.437 571.227 443.752L574.738 430.395C574.845 429.985 574.683 429.552 574.333 429.314L565.22 423.109C564.93 422.911 564.765 422.577 564.784 422.227L565.139 415.829C565.152 415.592 565.081 415.359 564.939 415.17L542.605 385.619C542.467 385.437 542.396 385.212 542.403 384.983L542.787 373.471C542.794 373.246 542.877 373.03 543.022 372.858L550.132 364.445C550.714 363.756 550.159 362.709 549.262 362.805L518.315 366.125C517.883 366.171 517.471 365.934 517.295 365.538L507.527 343.629C507.461 343.482 507.36 343.352 507.234 343.252L482.785 323.904C482.447 323.637 481.976 323.616 481.616 323.851L461.464 337.045C461.219 337.206 461.056 337.466 461.02 337.756L448.178 439.016Z" fill="#DC325F" stroke="#2B2B2B" stroke-linejoin="round"/>
<path fill-rule="evenodd" clip-rule="evenodd" d="M419.489 309.552C419.559 309.108 419.916 308.766 420.363 308.715L433.661 307.193C433.778 307.179 433.896 307.187 434.01 307.214L447.158 310.406C447.222 310.422 447.284 310.443 447.344 310.471L464.208 318.325C464.534 318.477 464.918 318.442 465.211 318.232L484.135 304.697C484.454 304.469 484.877 304.448 485.216 304.644L497.575 311.769C497.885 311.948 498.075 312.278 498.075 312.636V332.779C498.075 333.272 497.717 333.691 497.231 333.767L478.197 336.757C477.705 336.834 477.345 337.261 477.352 337.758L477.745 367.249C477.746 367.365 477.768 367.48 477.809 367.588L488.112 394.967C488.239 395.305 488.174 395.686 487.941 395.963L482.143 402.857C481.936 403.104 481.622 403.235 481.301 403.21L472.035 402.497C471.571 402.461 471.143 402.751 471.004 403.195L462.805 429.387C462.74 429.598 462.606 429.781 462.425 429.907L454.911 435.174C454.694 435.326 454.546 435.558 454.5 435.818L451.736 451.387C451.581 452.26 450.452 452.514 449.937 451.793L406.835 391.37C406.682 391.156 406.62 390.892 406.661 390.633L419.489 309.552Z" fill="#DC325F" stroke="#2B2B2B" stroke-linejoin="round"/>
<path fill-rule="evenodd" clip-rule="evenodd" d="M324.654 136.771C324.608 136.19 325.066 135.694 325.649 135.693L471.211 135.407C471.385 135.407 471.555 135.452 471.706 135.538L479.344 139.871C479.778 140.117 479.964 140.646 479.78 141.109L471.805 161.21C471.777 161.28 471.758 161.352 471.746 161.427L468.923 179.799C468.9 179.949 468.844 180.091 468.758 180.215L460.804 191.75C460.643 191.984 460.391 192.138 460.11 192.174L429.973 196.086C429.675 196.125 429.411 196.295 429.252 196.55L420.675 210.343C420.337 210.887 419.582 210.978 419.125 210.529L404.901 196.55C404.647 196.301 404.28 196.205 403.936 196.299L332.06 215.978C331.455 216.144 330.849 215.718 330.799 215.092L324.654 136.771Z" fill="#FCECE0" stroke="#2B2B2B" stroke-linejoin="round"/>
<path fill-rule="evenodd" clip-rule="evenodd" d="M382.845 455.399C382.899 455.658 382.848 455.929 382.702 456.151L377.076 464.724C376.702 465.293 376.994 466.062 377.652 466.238L399.206 472.029C399.616 472.139 400.052 471.978 400.291 471.627L414.502 450.83C414.71 450.525 415.07 450.36 415.437 450.401L449.537 454.165C450.322 454.251 450.893 453.436 450.543 452.728L425.167 401.357C425.004 401.027 425.036 400.634 425.249 400.335L436.694 384.235C436.873 383.984 436.925 383.664 436.837 383.369L433.568 372.457C433.541 372.368 433.502 372.282 433.451 372.204L417.723 347.737C417.539 347.451 417.513 347.091 417.654 346.781L423.178 334.667C423.351 334.287 423.27 333.84 422.975 333.545L416.945 327.507C416.708 327.27 416.606 326.93 416.672 326.601L420.086 309.771C420.203 309.197 419.803 308.646 419.22 308.579L386.094 304.773C385.598 304.716 385.136 305.033 385.011 305.516L366.601 376.703C366.562 376.851 366.559 377.006 366.59 377.156L382.845 455.399Z" fill="#DC325F" stroke="#2B2B2B" stroke-linejoin="round"/>
<path fill-rule="evenodd" clip-rule="evenodd" d="M230.999 372.988C230.459 373.247 230.266 373.919 230.586 374.424L269.233 435.556C269.482 435.95 269.97 436.12 270.41 435.965L296.399 426.829C296.584 426.764 296.784 426.755 296.974 426.803L308.999 429.813C309.215 429.867 309.443 429.847 309.646 429.757L330.2 420.67C330.824 420.394 331.535 420.81 331.6 421.49L333.073 436.976C333.134 437.621 333.785 438.039 334.397 437.825L338.634 436.35C339.237 436.14 339.879 436.54 339.956 437.173L341.169 447.134C341.215 447.508 341.467 447.825 341.821 447.953L364.351 456.107C364.791 456.267 365.284 456.099 365.535 455.703L366.737 453.812C366.965 453.453 367.394 453.278 367.808 453.374L382.675 456.83C383.012 456.908 383.365 456.807 383.609 456.563L389.261 450.904C389.441 450.723 389.545 450.481 389.553 450.226L390.398 420.316C390.402 420.179 390.378 420.043 390.327 419.916L374.847 381.306C374.693 380.923 374.79 380.485 375.092 380.203L391.888 364.487C392.045 364.341 392.15 364.149 392.189 363.938L395.407 346.481C395.503 345.959 395.175 345.453 394.659 345.328L324.628 328.363C324.404 328.308 324.168 328.333 323.96 328.433L230.999 372.988Z" fill="#DC325F" stroke="#2B2B2B" stroke-linejoin="round"/>
<path fill-rule="evenodd" clip-rule="evenodd" d="M346.194 343.069C346.367 343.342 346.66 343.515 346.983 343.533L394.806 346.209C395.28 346.236 395.707 345.926 395.829 345.468L405.584 308.741C405.701 308.298 406.106 307.991 406.564 307.998L416.583 308.139C417.186 308.148 417.66 307.623 417.59 307.023L415.612 290.128C415.584 289.886 415.468 289.662 415.286 289.499L368.975 248.085C368.792 247.921 368.555 247.831 368.309 247.831L287.665 247.737C286.876 247.736 286.397 248.606 286.819 249.272L346.194 343.069Z" fill="#DC325F" stroke="#2B2B2B"/>
<path fill-rule="evenodd" clip-rule="evenodd" d="M335.628 199.798C335.776 199.731 335.939 199.702 336.101 199.712L379.299 202.49C379.798 202.522 380.197 202.918 380.232 203.417L381.776 225.061C381.789 225.246 381.854 225.424 381.962 225.574L403.665 255.758C403.722 255.837 403.767 255.924 403.799 256.016L415.633 290.38C415.809 290.891 415.548 291.448 415.044 291.64L399.343 297.63C399.047 297.743 398.715 297.709 398.448 297.538L380.027 285.764C379.855 285.655 379.721 285.495 379.643 285.308L369.433 260.929C369.286 260.578 368.952 260.341 368.572 260.317L336.167 258.339C335.963 258.326 335.761 258.377 335.586 258.482L325.218 264.786C324.79 265.046 324.235 264.949 323.92 264.559L289.506 221.875C289.094 221.365 289.277 220.603 289.875 220.335L335.628 199.798Z" fill="#DC325F" stroke="#2B2B2B" stroke-linejoin="round"/>
<path fill-rule="evenodd" clip-rule="evenodd" d="M207.971 99.87C207.67 99.2928 207.992 98.5865 208.625 98.4351L252.786 87.8693C253.119 87.7897 253.388 87.5453 253.499 87.2215L262.044 62.3292C262.177 61.9413 262.534 61.674 262.944 61.655L279.489 60.8844C279.658 60.8765 279.823 60.8256 279.968 60.7364L309.276 42.646C309.376 42.5842 309.486 42.5405 309.601 42.517L332.215 37.9115C332.835 37.7853 333.415 38.2589 333.415 38.8914V49.9293C333.415 50.381 333.717 50.7766 334.153 50.8946L362.865 58.6648C363.251 58.7692 363.537 59.0932 363.594 59.4888L365.894 75.6101C365.924 75.8213 366.021 76.0174 366.171 76.1697L390.184 100.609C390.51 100.941 390.564 101.454 390.315 101.847L373.999 127.52C373.794 127.842 373.79 128.251 373.988 128.576L379.115 137.01C379.268 137.262 379.302 137.57 379.207 137.851L373.046 155.994C372.79 156.75 371.793 156.915 371.307 156.281L365.288 148.447C364.838 147.861 363.93 147.948 363.6 148.609L359.139 157.542C359.067 157.688 359.03 157.849 359.034 158.012L359.43 175.429C359.433 175.592 359.397 175.753 359.324 175.898L349.745 195.082C349.7 195.172 349.642 195.255 349.572 195.328L319.073 227.072C318.885 227.268 318.624 227.379 318.352 227.379H275.068C274.696 227.379 274.354 227.172 274.182 226.842L207.971 99.87Z" fill="#FCECE0" stroke="#2B2B2B" stroke-linejoin="round"/>
<path fill-rule="evenodd" clip-rule="evenodd" d="M302.623 264.318C303.224 263.716 304.254 264.091 304.327 264.938L305.707 280.829C305.744 281.247 306.037 281.598 306.442 281.707L320.394 285.483C320.66 285.555 320.885 285.734 321.015 285.976L341.67 324.557C341.844 324.882 342.183 325.085 342.551 325.085H354.968C355.226 325.085 355.473 324.986 355.659 324.808L363.02 317.773C363.585 317.232 364.525 317.522 364.688 318.287L370.24 344.228C370.34 344.696 370.095 345.169 369.655 345.357L318.853 367.045C318.357 367.257 317.784 367.038 317.555 366.55L280.452 287.452C280.273 287.071 280.352 286.619 280.649 286.321L302.623 264.318Z" fill="#DC325F" stroke="#2B2B2B" stroke-linejoin="round"/>
<path fill-rule="evenodd" clip-rule="evenodd" d="M301.077 368.992C301.221 369.032 301.354 369.103 301.467 369.201L319.234 384.62C319.46 384.816 319.762 384.901 320.057 384.85L340.42 381.388C340.849 381.315 341.181 380.974 341.242 380.543L343.915 361.812C343.959 361.501 343.855 361.187 343.632 360.964L303.902 321.181C303.792 321.071 303.709 320.937 303.66 320.79L293.639 290.685C293.594 290.551 293.578 290.408 293.593 290.267L297.109 256.231C297.172 255.618 296.672 255.094 296.057 255.129L234.37 258.648C233.69 258.687 233.247 259.378 233.496 260.011L273.059 360.852C273.174 361.145 273.421 361.367 273.724 361.451L301.077 368.992Z" fill="#DC325F" stroke="#2B2B2B" stroke-linejoin="round"/>
<path fill-rule="evenodd" clip-rule="evenodd" d="M238.047 143.242C238.434 143.161 238.833 143.315 239.064 143.635L265.953 180.854C266.183 181.172 266.206 181.595 266.011 181.935L261.673 189.537C261.532 189.784 261.503 190.079 261.592 190.349L267.243 207.322C267.517 208.146 268.638 208.253 269.063 207.496L271.252 203.6C271.468 203.216 271.91 203.018 272.341 203.114L282.247 205.318C282.471 205.368 282.671 205.493 282.813 205.673L327.779 262.357C327.996 262.63 328.055 262.997 327.934 263.325L324.407 272.86C324.217 273.375 323.647 273.64 323.131 273.454L308.933 268.351C308.505 268.197 308.028 268.351 307.77 268.726L304.066 274.121C303.862 274.419 303.512 274.583 303.151 274.55L268.318 271.38C268.084 271.358 267.851 271.42 267.658 271.553L245.989 286.544C245.74 286.716 245.426 286.767 245.136 286.68L161.416 261.812C160.955 261.675 160.657 261.23 160.706 260.752L171.119 158.083C171.163 157.65 171.482 157.296 171.908 157.206L238.047 143.242Z" fill="#FCECE0" stroke="#2B2B2B" stroke-linejoin="round"/>
<path fill-rule="evenodd" clip-rule="evenodd" d="M130.706 233.925C130.871 234.418 131.386 234.703 131.891 234.581L160.756 227.574C160.964 227.523 161.183 227.541 161.38 227.624L177.412 234.383C177.944 234.608 178.555 234.336 178.745 233.79L185.642 213.935C185.671 213.849 185.689 213.759 185.695 213.668L186.779 195.927C186.797 195.627 186.95 195.351 187.194 195.176L207.978 180.25C208.171 180.112 208.407 180.046 208.644 180.066L228.627 181.719C229.394 181.782 229.942 180.993 229.615 180.297L223.492 167.269C223.254 166.762 223.479 166.158 223.991 165.93L246.55 155.891C247.128 155.633 247.325 154.911 246.957 154.396L206.795 98.0951C206.701 97.9623 206.575 97.8547 206.429 97.7817L192.776 90.9463C192.361 90.7384 191.857 90.8438 191.56 91.2008L178.556 106.826C178.45 106.953 178.314 107.052 178.161 107.114L99.9669 138.613C99.4767 138.81 99.2248 139.355 99.3917 139.856L130.706 233.925Z" fill="#FCECE0" stroke="#2B2B2B" stroke-linejoin="round"/>
<path fill-rule="evenodd" clip-rule="evenodd" d="M119.974 455.582C119.968 455.704 119.985 455.826 120.024 455.942L127.082 477.144C127.205 477.514 127.531 477.778 127.918 477.822L155.868 480.975C156.053 480.996 156.227 481.068 156.373 481.182L193.056 509.928C193.36 510.167 193.775 510.208 194.121 510.035L205.286 504.445C205.578 504.299 205.78 504.02 205.828 503.697L212.603 457.804C212.642 457.542 212.575 457.275 212.417 457.063L203.853 445.505C203.546 445.091 203.604 444.511 203.987 444.166L210.853 437.979C211.199 437.667 211.714 437.636 212.095 437.902L236.452 454.936C236.812 455.188 237.294 455.175 237.64 454.905L278.561 422.992C278.993 422.655 279.073 422.033 278.741 421.597L262.577 400.401C262.381 400.145 262.321 399.81 262.416 399.501L266.922 384.837C267.053 384.41 267.452 384.122 267.898 384.131L286.192 384.505C286.692 384.515 287.123 384.154 287.2 383.659L288.982 372.24C289.051 371.799 289.403 371.457 289.846 371.402L300.697 370.043C301.384 369.957 301.778 369.216 301.464 368.598L290.495 347.01C290.381 346.786 290.187 346.613 289.952 346.526L268.59 338.603C268.441 338.548 268.281 338.529 268.124 338.548L125.281 355.518C124.794 355.576 124.422 355.977 124.4 356.466L119.974 455.582Z" fill="#FCECE0" stroke="#2B2B2B"/>
<path fill-rule="evenodd" clip-rule="evenodd" d="M51.271 403.495C51.2603 403.602 51.2671 403.711 51.291 403.816L58.4824 435.42C58.5406 435.675 58.6966 435.898 58.9171 436.039L79.7141 449.399C79.9713 449.564 80.29 449.602 80.5792 449.503L93.7699 444.974C94.1265 444.852 94.5217 444.941 94.7919 445.203L108.298 458.341C108.48 458.518 108.723 458.619 108.977 458.624L129.673 459C130.32 459.012 130.808 458.416 130.667 457.784L127.818 444.946C127.739 444.589 127.861 444.218 128.136 443.977L145.997 428.328C146.554 427.84 146.406 426.937 145.722 426.653L126.628 418.716C126.1 418.497 125.863 417.88 126.109 417.363L133.595 401.622C133.718 401.363 133.947 401.169 134.223 401.09L147.85 397.192C147.961 397.16 148.078 397.147 148.194 397.155L182.859 399.549C183.191 399.572 183.513 399.428 183.717 399.166L221.714 350.305C221.903 350.061 222.195 349.919 222.503 349.919H235.709C236.043 349.919 236.356 350.086 236.541 350.365L249.743 370.195C249.944 370.495 250.291 370.665 250.651 370.638L265.498 369.522C265.98 369.486 266.367 369.111 266.418 368.63L267.918 354.355C267.943 354.119 268.051 353.9 268.222 353.736L276.592 345.736C276.79 345.547 276.901 345.286 276.901 345.013V331.315C276.901 330.984 276.737 330.673 276.462 330.487L248.295 311.42C248.125 311.305 247.925 311.245 247.721 311.248L61.0931 313.675C60.5841 313.681 60.1614 314.069 60.111 314.576L51.271 403.495Z" fill="#FCECE0" stroke="#2B2B2B" stroke-linejoin="round"/>
<path fill-rule="evenodd" clip-rule="evenodd" d="M1.29626 379.262C1.12794 379.746 1.35292 380.279 1.81722 380.496L62.636 408.935C63.0199 409.115 63.4754 409.033 63.7726 408.73L96.0947 375.862C96.3942 375.558 96.4672 375.097 96.2764 374.714L88.5675 359.276C88.4546 359.05 88.4315 358.79 88.5026 358.548L97.3495 328.429C97.4473 328.096 97.7107 327.837 98.0455 327.746L107.11 325.27C107.38 325.197 107.606 325.014 107.735 324.765L132.482 276.975C132.776 276.408 132.469 275.713 131.851 275.549L91.1475 264.736C90.2339 264.493 90.136 263.236 91.0011 262.854L110.498 254.264C110.902 254.086 111.142 253.664 111.087 253.225L110.354 247.351C110.302 246.937 110.513 246.535 110.883 246.341L130.475 236.106C130.911 235.878 131.117 235.367 130.96 234.901L97.6911 135.862C97.5771 135.523 97.2905 135.27 96.9395 135.2L56.9879 127.199C56.6748 127.136 56.3505 127.227 56.1153 127.443L46.1456 136.594C45.799 136.912 45.2774 136.945 44.893 136.674L6.92434 109.888C6.28168 109.435 5.39133 109.867 5.34931 110.652L2.72132 159.773C2.71482 159.894 2.73055 160.016 2.76774 160.132L27.1858 236.199C27.2724 236.469 27.2405 236.763 27.0982 237.008L11.1179 264.492C10.9955 264.702 10.9541 264.95 11.0014 265.189L21.8133 319.833C21.8478 320.007 21.8353 320.187 21.7769 320.355L1.29626 379.262Z" fill="#FCECE0" stroke="#2B2B2B" stroke-linejoin="round"/>
<path fill-rule="evenodd" clip-rule="evenodd" d="M108.272 324.857C108.006 325.406 108.29 326.063 108.872 326.246L128.131 332.296C128.37 332.371 128.629 332.354 128.857 332.246L134.805 329.443C135.174 329.27 135.611 329.337 135.91 329.614L145.397 338.383C145.741 338.701 146.26 338.737 146.645 338.471L162.395 327.582C162.784 327.313 163.307 327.353 163.651 327.678L170.071 333.749C170.268 333.936 170.534 334.034 170.805 334.021L212.683 332.024C212.932 332.012 213.167 331.908 213.343 331.732L221.736 323.328C221.915 323.149 222.155 323.044 222.408 323.035L233.036 322.655C233.27 322.647 233.5 322.721 233.685 322.864L245.709 332.186C245.898 332.332 246.133 332.406 246.372 332.394L261.557 331.634C261.981 331.613 262.345 331.326 262.466 330.919L265.44 320.867C265.491 320.697 265.586 320.543 265.715 320.421L271.635 314.864C271.877 314.637 271.991 314.303 271.937 313.975L267.184 284.621C267.157 284.459 267.171 284.293 267.225 284.138L271.739 270.952C271.901 270.479 271.689 269.958 271.241 269.734L258.896 263.554C258.486 263.349 257.989 263.448 257.691 263.795L248.334 274.663C248.144 274.884 247.867 275.011 247.576 275.011H233.992C233.439 275.011 232.992 274.563 232.992 274.011V262.773C232.992 262.033 232.216 261.549 231.552 261.875L214.807 270.08C214.301 270.328 213.69 270.109 213.457 269.597L203.456 247.642C203.363 247.438 203.204 247.272 203.005 247.169L178.105 234.3L161.754 227.112C161.548 227.021 161.317 227.003 161.099 227.06L131.888 234.673C131.8 234.696 131.716 234.73 131.638 234.776L111.89 246.245C111.601 246.413 111.415 246.714 111.394 247.047L111.056 252.462C111.034 252.813 110.83 253.126 110.519 253.288L91.3933 263.218C90.5781 263.641 90.7169 264.847 91.607 265.074L130.977 275.116C131.589 275.272 131.905 275.95 131.63 276.52L108.272 324.857Z" fill="#FCECE0" stroke="#2B2B2B" stroke-linejoin="round"/>
</svg>
